{
	"asset":{
		"generator":"Khronos glTF Blender I/O v4.0.44",
		"version":"2.0"
	},
	"extensionsUsed":[
		"KHR_lights_punctual"
	],
	"extensionsRequired":[
		"KHR_lights_punctual"
	],
	"extensions":{
		"KHR_lights_punctual":{
			"lights":[
				{
					"color":[
						0.3994406759738922,
						0.3994406759738922,
						0.29299092292785645
					],
					"intensity":683,
					"type":"directional",
					"name":"Sun"
				}
			]
		}
	},
	"scene":0,
	"scenes":[
		{
			"name":"Scene",
			"nodes":[
				0,
				1,
				2,
				3,
				4,
				5,
				6,
				7,
				8,
				9,
				10,
				11,
				12,
				13,
				14
			]
		}
	],
	"nodes":[
		{
			"mesh":0,
			"name":"Object5",
			"rotation":[
				0.7071068286895752,
				0,
				0,
				0.7071068286895752
			],
			"scale":[
				0.13499999046325684,
				0.13499999046325684,
				0.13499999046325684
			],
			"translation":[
				2.3713974952697754,
				5.502785682678223,
				0.24068713188171387
			]
		},
		{
			"mesh":1,
			"name":"DarkWall",
			"rotation":[
				0.7071068286895752,
				0,
				0,
				0.7071068286895752
			],
			"scale":[
				0.13499999046325684,
				0.13499999046325684,
				0.13499999046325684
			],
			"translation":[
				2.3713974952697754,
				5.502785682678223,
				0.24068713188171387
			]
		},
		{
			"mesh":2,
			"name":"Stairs",
			"rotation":[
				0.7071068286895752,
				0,
				0,
				0.7071068286895752
			],
			"scale":[
				0.13499999046325684,
				0.13499999046325684,
				0.13499999046325684
			],
			"translation":[
				2.3713974952697754,
				5.502785682678223,
				0.24068713188171387
			]
		},
		{
			"mesh":3,
			"name":"Object7",
			"rotation":[
				0.7071068286895752,
				0,
				0,
				0.7071068286895752
			],
			"scale":[
				0.13499999046325684,
				0.13499999046325684,
				0.13499999046325684
			],
			"translation":[
				2.3713974952697754,
				5.502785682678223,
				0.24068713188171387
			]
		},
		{
			"mesh":4,
			"name":"Object8",
			"rotation":[
				0.7071068286895752,
				0,
				0,
				0.7071068286895752
			],
			"scale":[
				0.13499999046325684,
				0.13499999046325684,
				0.13499999046325684
			],
			"translation":[
				2.3713974952697754,
				5.502785682678223,
				0.24068713188171387
			]
		},
		{
			"extensions":{
				"KHR_lights_punctual":{
					"light":0
				}
			},
			"name":"Sun",
			"rotation":[
				-0.573280394077301,
				-0.30828598141670227,
				-0.19087018072605133,
				0.7347638607025146
			],
			"scale":[
				0.5399999618530273,
				0.5400000214576721,
				0.5399999618530273
			],
			"translation":[
				2.3713974952697754,
				42.270084381103516,
				0.24068713188171387
			]
		},
		{
			"extras":{
				"spawn_point_team":1
			},
			"mesh":5,
			"name":"Cube.003",
			"scale":[
				0.6749999523162842,
				0.6749999523162842,
				0.6749999523162842
			],
			"translation":[
				24.787742614746094,
				18.142131805419922,
				13.396818161010742
			]
		},
		{
			"extras":{
				"spawn_point_team":1
			},
			"mesh":5,
			"name":"Cube.001",
			"scale":[
				0.6749999523162842,
				0.6749999523162842,
				0.6749999523162842
			],
			"translation":[
				21.05669403076172,
				18.142131805419922,
				-17.28555679321289
			]
		},
		{
			"extras":{
				"spawn_point_team":1
			},
			"mesh":5,
			"name":"Cube.002",
			"scale":[
				0.6749999523162842,
				0.6749999523162842,
				0.6749999523162842
			],
			"translation":[
				-10.167912483215332,
				16.100019454956055,
				-20.9186954498291
			]
		},
		{
			"extras":{
				"spawn_point_team":1
			},
			"mesh":5,
			"name":"Cube.004",
			"scale":[
				0.6749999523162842,
				0.6749999523162842,
				0.6749999523162842
			],
			"translation":[
				-10.167912483215332,
				10.562369346618652,
				29.77271842956543
			]
		},
		{
			"extras":{
				"spawn_point_team":1
			},
			"mesh":5,
			"name":"Cube.005",
			"scale":[
				0.6749999523162842,
				0.6749999523162842,
				0.6749999523162842
			],
			"translation":[
				25.114810943603516,
				10.562369346618652,
				29.77271842956543
			]
		},
		{
			"extras":{
				"spawn_point_team":1
			},
			"mesh":5,
			"name":"Cube.006",
			"scale":[
				0.6749999523162842,
				0.6749999523162842,
				0.6749999523162842
			],
			"translation":[
				25.114810943603516,
				8.781551361083984,
				-21.053800582885742
			]
		},
		{
			"extras":{
				"spawn_point_team":1
			},
			"mesh":5,
			"name":"Cube.007",
			"scale":[
				0.6749999523162842,
				0.6749999523162842,
				0.6749999523162842
			],
			"translation":[
				-2.9237489700317383,
				8.781551361083984,
				-21.053800582885742
			]
		},
		{
			"extras":{
				"pickup":"shield"
			},
			"mesh":6,
			"name":"Shield.001",
			"scale":[
				0.6749999523162842,
				0.6749999523162842,
				0.6749999523162842
			],
			"translation":[
				24.001327514648438,
				17.051849365234375,
				13.309011459350586
			]
		},
		{
			"extras":{
				"pickup":"shield"
			},
			"mesh":6,
			"name":"Shield.002",
			"scale":[
				0.6749999523162842,
				0.6749999523162842,
				0.6749999523162842
			],
			"translation":[
				-1.5950937271118164,
				5.360386848449707,
				3.7251029014587402
			]
		}
	],
	"materials":[
		{
			"doubleSided":true,
			"name":"Material.002",
			"normalTexture":{
				"index":0
			},
			"pbrMetallicRoughness":{
				"baseColorTexture":{
					"index":1
				},
				"metallicFactor":0,
				"roughnessFactor":0.5
			}
		},
		{
			"doubleSided":true,
			"name":"Material.005",
			"normalTexture":{
				"index":2
			},
			"pbrMetallicRoughness":{
				"baseColorTexture":{
					"index":3
				},
				"metallicFactor":0,
				"roughnessFactor":0.5
			}
		},
		{
			"doubleSided":true,
			"name":"Material.009",
			"normalTexture":{
				"index":4
			},
			"pbrMetallicRoughness":{
				"baseColorTexture":{
					"index":5
				},
				"metallicFactor":0,
				"roughnessFactor":0.5
			}
		},
		{
			"doubleSided":true,
			"name":"Material",
			"normalTexture":{
				"index":6
			},
			"pbrMetallicRoughness":{
				"baseColorTexture":{
					"index":7
				},
				"metallicFactor":0,
				"roughnessFactor":0.5
			}
		},
		{
			"doubleSided":true,
			"name":"Material.003",
			"pbrMetallicRoughness":{
				"baseColorFactor":[
					0.800000011920929,
					0.800000011920929,
					0.800000011920929,
					1
				],
				"metallicFactor":0,
				"roughnessFactor":0.4000000059604645
			}
		}
	],
	"meshes":[
		{
			"name":"Object5",
			"primitives":[
				{
					"attributes":{
						"POSITION":0,
						"NORMAL":1,
						"TEXCOORD_0":2,
						"TEXCOORD_1":3
					},
					"indices":4,
					"material":0
				}
			]
		},
		{
			"name":"Object4",
			"primitives":[
				{
					"attributes":{
						"POSITION":5,
						"NORMAL":6,
						"TEXCOORD_0":7,
						"TEXCOORD_1":8
					},
					"indices":9,
					"material":1
				}
			]
		},
		{
			"name":"Object9",
			"primitives":[
				{
					"attributes":{
						"POSITION":10,
						"NORMAL":11,
						"TEXCOORD_0":12,
						"TEXCOORD_1":13
					},
					"indices":14,
					"material":2
				}
			]
		},
		{
			"name":"Object7",
			"primitives":[
				{
					"attributes":{
						"POSITION":15,
						"NORMAL":16,
						"TEXCOORD_0":17,
						"TEXCOORD_1":18,
						"TANGENT":19
					},
					"indices":20,
					"material":1
				}
			]
		},
		{
			"name":"Object8",
			"primitives":[
				{
					"attributes":{
						"POSITION":21,
						"NORMAL":22,
						"TEXCOORD_0":23,
						"TEXCOORD_1":24
					},
					"indices":25,
					"material":3
				}
			]
		},
		{
			"name":"Cube.001",
			"primitives":[
				{
					"attributes":{
						"POSITION":26,
						"NORMAL":27,
						"TEXCOORD_0":28,
						"TANGENT":29
					},
					"indices":30
				}
			]
		},
		{
			"name":"Shield",
			"primitives":[
				{
					"attributes":{
						"POSITION":31,
						"NORMAL":32,
						"TEXCOORD_0":33,
						"TANGENT":34
					},
					"indices":35,
					"material":4
				}
			]
		}
	],
	"textures":[
		{
			"sampler":0,
			"source":0
		},
		{
			"sampler":0,
			"source":1
		},
		{
			"sampler":0,
			"source":2
		},
		{
			"sampler":0,
			"source":3
		},
		{
			"sampler":0,
			"source":4
		},
		{
			"sampler":0,
			"source":5
		},
		{
			"sampler":0,
			"source":6
		},
		{
			"sampler":0,
			"source":7
		}
	],
	"images":[
		{
			"mimeType":"image/jpeg",
			"name":"Regular_Pavement_n",
			"uri":"Regular_Pavement_n.jpg"
		},
		{
			"mimeType":"image/jpeg",
			"name":"Regular_Pavement",
			"uri":"Regular_Pavement.jpg"
		},
		{
			"mimeType":"image/jpeg",
			"name":"Rock_04_n",
			"uri":"Rock_04_n.jpg"
		},
		{
			"mimeType":"image/jpeg",
			"name":"Rock_04",
			"uri":"Rock_04.jpg"
		},
		{
			"mimeType":"image/jpeg",
			"name":"Marble_Tiles_n",
			"uri":"Marble_Tiles_n.jpg"
		},
		{
			"mimeType":"image/jpeg",
			"name":"Marble_Tiles",
			"uri":"Marble_Tiles.jpg"
		},
		{
			"mimeType":"image/jpeg",
			"name":"Milano_Pavement_n",
			"uri":"Milano_Pavement_n.jpg"
		},
		{
			"mimeType":"image/jpeg",
			"name":"Milano_Pavement",
			"uri":"Milano_Pavement.jpg"
		}
	],
	"accessors":[
		{
			"bufferView":0,
			"componentType":5126,
			"count":41,
			"max":[
				192,
				320,
				0
			],
			"min":[
				-128,
				-192,
				-192
			],
			"type":"VEC3"
		},
		{
			"bufferView":1,
			"componentType":5126,
			"count":41,
			"type":"VEC3"
		},
		{
			"bufferView":2,
			"componentType":5126,
			"count":41,
			"type":"VEC2"
		},
		{
			"bufferView":3,
			"componentType":5126,
			"count":41,
			"type":"VEC2"
		},
		{
			"bufferView":4,
			"componentType":5123,
			"count":78,
			"type":"SCALAR"
		},
		{
			"bufferView":5,
			"componentType":5126,
			"count":67,
			"max":[
				192,
				256,
				0
			],
			"min":[
				-128,
				-192,
				-78
			],
			"type":"VEC3"
		},
		{
			"bufferView":6,
			"componentType":5126,
			"count":67,
			"type":"VEC3"
		},
		{
			"bufferView":7,
			"componentType":5126,
			"count":67,
			"type":"VEC2"
		},
		{
			"bufferView":8,
			"componentType":5126,
			"count":67,
			"type":"VEC2"
		},
		{
			"bufferView":9,
			"componentType":5123,
			"count":111,
			"type":"SCALAR"
		},
		{
			"bufferView":10,
			"componentType":5126,
			"count":4591,
			"max":[
				192,
				192,
				0
			],
			"min":[
				-128,
				-192,
				-88
			],
			"type":"VEC3"
		},
		{
			"bufferView":11,
			"componentType":5126,
			"count":4591,
			"type":"VEC3"
		},
		{
			"bufferView":12,
			"componentType":5126,
			"count":4591,
			"type":"VEC2"
		},
		{
			"bufferView":13,
			"componentType":5126,
			"count":4591,
			"type":"VEC2"
		},
		{
			"bufferView":14,
			"componentType":5123,
			"count":8757,
			"type":"SCALAR"
		},
		{
			"bufferView":15,
			"componentType":5126,
			"count":3209,
			"max":[
				136.17771911621094,
				128.2501220703125,
				-48.05359649658203
			],
			"min":[
				-128.18707275390625,
				-136.1980743408203,
				-127.19837188720703
			],
			"type":"VEC3"
		},
		{
			"bufferView":16,
			"componentType":5126,
			"count":3209,
			"type":"VEC3"
		},
		{
			"bufferView":17,
			"componentType":5126,
			"count":3209,
			"type":"VEC2"
		},
		{
			"bufferView":18,
			"componentType":5126,
			"count":3209,
			"type":"VEC2"
		},
		{
			"bufferView":19,
			"componentType":5126,
			"count":3209,
			"type":"VEC4"
		},
		{
			"bufferView":20,
			"componentType":5123,
			"count":12960,
			"type":"SCALAR"
		},
		{
			"bufferView":21,
			"componentType":5126,
			"count":102,
			"max":[
				192,
				256,
				8
			],
			"min":[
				-128,
				-192,
				-16
			],
			"type":"VEC3"
		},
		{
			"bufferView":22,
			"componentType":5126,
			"count":102,
			"type":"VEC3"
		},
		{
			"bufferView":23,
			"componentType":5126,
			"count":102,
			"type":"VEC2"
		},
		{
			"bufferView":24,
			"componentType":5126,
			"count":102,
			"type":"VEC2"
		},
		{
			"bufferView":25,
			"componentType":5123,
			"count":162,
			"type":"SCALAR"
		},
		{
			"bufferView":26,
			"componentType":5126,
			"count":24,
			"max":[
				0.75,
				0.75,
				0.75
			],
			"min":[
				-0.75,
				-0.75,
				-0.75
			],
			"type":"VEC3"
		},
		{
			"bufferView":27,
			"componentType":5126,
			"count":24,
			"type":"VEC3"
		},
		{
			"bufferView":28,
			"componentType":5126,
			"count":24,
			"type":"VEC2"
		},
		{
			"bufferView":29,
			"componentType":5126,
			"count":24,
			"type":"VEC4"
		},
		{
			"bufferView":30,
			"componentType":5123,
			"count":36,
			"type":"SCALAR"
		},
		{
			"bufferView":31,
			"componentType":5126,
			"count":164,
			"max":[
				0.0596998892724514,
				0.514474630355835,
				0.25
			],
			"min":[
				-0.0596998892724514,
				0,
				-0.25
			],
			"type":"VEC3"
		},
		{
			"bufferView":32,
			"componentType":5126,
			"count":164,
			"type":"VEC3"
		},
		{
			"bufferView":33,
			"componentType":5126,
			"count":164,
			"type":"VEC2"
		},
		{
			"bufferView":34,
			"componentType":5126,
			"count":164,
			"type":"VEC4"
		},
		{
			"bufferView":35,
			"componentType":5123,
			"count":204,
			"type":"SCALAR"
		}
	],
	"bufferViews":[
		{
			"buffer":0,
			"byteLength":492,
			"byteOffset":0,
			"target":34962
		},
		{
			"buffer":0,
			"byteLength":492,
			"byteOffset":492,
			"target":34962
		},
		{
			"buffer":0,
			"byteLength":328,
			"byteOffset":984,
			"target":34962
		},
		{
			"buffer":0,
			"byteLength":328,
			"byteOffset":1312,
			"target":34962
		},
		{
			"buffer":0,
			"byteLength":156,
			"byteOffset":1640,
			"target":34963
		},
		{
			"buffer":0,
			"byteLength":804,
			"byteOffset":1796,
			"target":34962
		},
		{
			"buffer":0,
			"byteLength":804,
			"byteOffset":2600,
			"target":34962
		},
		{
			"buffer":0,
			"byteLength":536,
			"byteOffset":3404,
			"target":34962
		},
		{
			"buffer":0,
			"byteLength":536,
			"byteOffset":3940,
			"target":34962
		},
		{
			"buffer":0,
			"byteLength":222,
			"byteOffset":4476,
			"target":34963
		},
		{
			"buffer":0,
			"byteLength":55092,
			"byteOffset":4700,
			"target":34962
		},
		{
			"buffer":0,
			"byteLength":55092,
			"byteOffset":59792,
			"target":34962
		},
		{
			"buffer":0,
			"byteLength":36728,
			"byteOffset":114884,
			"target":34962
		},
		{
			"buffer":0,
			"byteLength":36728,
			"byteOffset":151612,
			"target":34962
		},
		{
			"buffer":0,
			"byteLength":17514,
			"byteOffset":188340,
			"target":34963
		},
		{
			"buffer":0,
			"byteLength":38508,
			"byteOffset":205856,
			"target":34962
		},
		{
			"buffer":0,
			"byteLength":38508,
			"byteOffset":244364,
			"target":34962
		},
		{
			"buffer":0,
			"byteLength":25672,
			"byteOffset":282872,
			"target":34962
		},
		{
			"buffer":0,
			"byteLength":25672,
			"byteOffset":308544,
			"target":34962
		},
		{
			"buffer":0,
			"byteLength":51344,
			"byteOffset":334216,
			"target":34962
		},
		{
			"buffer":0,
			"byteLength":25920,
			"byteOffset":385560,
			"target":34963
		},
		{
			"buffer":0,
			"byteLength":1224,
			"byteOffset":411480,
			"target":34962
		},
		{
			"buffer":0,
			"byteLength":1224,
			"byteOffset":412704,
			"target":34962
		},
		{
			"buffer":0,
			"byteLength":816,
			"byteOffset":413928,
			"target":34962
		},
		{
			"buffer":0,
			"byteLength":816,
			"byteOffset":414744,
			"target":34962
		},
		{
			"buffer":0,
			"byteLength":324,
			"byteOffset":415560,
			"target":34963
		},
		{
			"buffer":0,
			"byteLength":288,
			"byteOffset":415884,
			"target":34962
		},
		{
			"buffer":0,
			"byteLength":288,
			"byteOffset":416172,
			"target":34962
		},
		{
			"buffer":0,
			"byteLength":192,
			"byteOffset":416460,
			"target":34962
		},
		{
			"buffer":0,
			"byteLength":384,
			"byteOffset":416652,
			"target":34962
		},
		{
			"buffer":0,
			"byteLength":72,
			"byteOffset":417036,
			"target":34963
		},
		{
			"buffer":0,
			"byteLength":1968,
			"byteOffset":417108,
			"target":34962
		},
		{
			"buffer":0,
			"byteLength":1968,
			"byteOffset":419076,
			"target":34962
		},
		{
			"buffer":0,
			"byteLength":1312,
			"byteOffset":421044,
			"target":34962
		},
		{
			"buffer":0,
			"byteLength":2624,
			"byteOffset":422356,
			"target":34962
		},
		{
			"buffer":0,
			"byteLength":408,
			"byteOffset":424980,
			"target":34963
		}
	],
	"samplers":[
		{
			"magFilter":9729,
			"minFilter":9987
		}
	],
	"buffers":[
		{
			"byteLength":425388,
			"uri":"map.bin"
		}
	]
}
