{
	"asset":{
		"generator":"Khronos glTF Blender I/O v4.0.44",
		"version":"2.0"
	},
	"extensionsUsed":[
		"KHR_lights_punctual"
	],
	"extensionsRequired":[
		"KHR_lights_punctual"
	],
	"extensions":{
		"KHR_lights_punctual":{
			"lights":[
				{
					"color":[
						0.8518381118774414,
						0.8518381118774414,
						0.8070203065872192
					],
					"intensity":683,
					"type":"directional",
					"name":"Sun"
				}
			]
		}
	},
	"scene":0,
	"scenes":[
		{
			"name":"Scene",
			"nodes":[
				0,
				1,
				2,
				3,
				4,
				5,
				6,
				7,
				8,
				9,
				10,
				11,
				12,
				13,
				14,
				15,
				16,
				17,
				18,
				19
			]
		}
	],
	"nodes":[
		{
			"extras":{
				"spawn_point_team":1
			},
			"mesh":0,
			"name":"SpawnPoint1",
			"translation":[
				1.6950922012329102,
				-4.060000419616699,
				3.8360824584960938
			]
		},
		{
			"extensions":{
				"KHR_lights_punctual":{
					"light":0
				}
			},
			"name":"Sun",
			"rotation":[
				-0.2141827642917633,
				0.005009918007999659,
				0.06901693344116211,
				0.9743394255638123
			],
			"translation":[
				1.459977149963379,
				28,
				3.584606170654297
			]
		},
		{
			"mesh":1,
			"name":"BumpyFloor",
			"scale":[
				32,
				32,
				32
			],
			"translation":[
				0,
				-11.43665885925293,
				0
			]
		},
		{
			"mesh":2,
			"name":"Icosphere",
			"translation":[
				17,
				-10.43665885925293,
				18
			]
		},
		{
			"mesh":3,
			"name":"Crate.001",
			"rotation":[
				0,
				-0.3016776442527771,
				0,
				0.9534100890159607
			],
			"scale":[
				1.5,
				1.5,
				1.5
			],
			"translation":[
				-4.6442179679870605,
				-10.699999809265137,
				-0.6062326431274414
			]
		},
		{
			"mesh":4,
			"name":"Torus",
			"scale":[
				4.501077651977539,
				4.501077651977539,
				4.501077651977539
			],
			"translation":[
				0.2625579833984375,
				-10.43665885925293,
				15.04020881652832
			]
		},
		{
			"mesh":5,
			"name":"Torus.001",
			"scale":[
				4.501077651977539,
				4.501077651977539,
				4.501077651977539
			],
			"translation":[
				0.2625579833984375,
				-10.43665885925293,
				15.04020881652832
			]
		},
		{
			"mesh":6,
			"name":"Torus.002",
			"translation":[
				14,
				-0.4366588592529297,
				2
			]
		},
		{
			"mesh":7,
			"name":"JumpPadProp",
			"translation":[
				14,
				-11.43665885925293,
				2
			]
		},
		{
			"extras":{
				"spawn_point_team":1
			},
			"mesh":8,
			"name":"SpawnPoint1.001",
			"translation":[
				15,
				-11,
				12
			]
		},
		{
			"extras":{
				"spawn_point_team":1
			},
			"mesh":8,
			"name":"SpawnPoint1.002",
			"translation":[
				24,
				-11,
				-26
			]
		},
		{
			"extras":{
				"spawn_point_team":1
			},
			"mesh":8,
			"name":"SpawnPoint1.003",
			"translation":[
				-20,
				-4,
				20
			]
		},
		{
			"extras":{
				"spawn_point_team":1
			},
			"mesh":8,
			"name":"SpawnPoint1.004",
			"translation":[
				-20,
				-8,
				-20
			]
		},
		{
			"extras":{
				"pickup":"shield"
			},
			"mesh":9,
			"name":"Shield.001",
			"translation":[
				14,
				3,
				2
			]
		},
		{
			"extras":{
				"pickup":"shield"
			},
			"mesh":9,
			"name":"Shield.002",
			"translation":[
				14,
				0,
				2
			]
		},
		{
			"extras":{
				"pickup":"shield"
			},
			"mesh":9,
			"name":"Shield.003",
			"translation":[
				14,
				-3,
				2
			]
		},
		{
			"extras":{
				"pickup":"shield"
			},
			"mesh":9,
			"name":"Shield.004",
			"translation":[
				0,
				-9,
				15
			]
		},
		{
			"mesh":10,
			"name":"JumpPadProp.001",
			"translation":[
				-4,
				-11.339098930358887,
				4
			]
		},
		{
			"extras":{
				"jump_pad_height":18.0
			},
			"mesh":11,
			"name":"JMP.002",
			"translation":[
				14,
				-11,
				2
			]
		},
		{
			"extras":{
				"jump_pad_height":10.0
			},
			"mesh":11,
			"name":"JMP.001",
			"scale":[
				0.9975746870040894,
				0.9975746273994446,
				0.9975747466087341
			],
			"translation":[
				-4,
				-11,
				4
			]
		}
	],
	"materials":[
		{
			"doubleSided":true,
			"emissiveFactor":[
				0.9717552065849304,
				1,
				0
			],
			"name":"Material.001",
			"pbrMetallicRoughness":{
				"baseColorFactor":[
					1,
					0.8960911631584167,
					0,
					1
				],
				"metallicFactor":0,
				"roughnessFactor":0.5
			}
		},
		{
			"doubleSided":true,
			"name":"White",
			"normalTexture":{
				"index":0
			},
			"pbrMetallicRoughness":{
				"baseColorTexture":{
					"index":1
				},
				"metallicFactor":0,
				"roughnessFactor":0.5
			}
		},
		{
			"doubleSided":true,
			"name":"Red",
			"pbrMetallicRoughness":{
				"baseColorFactor":[
					0.8000000715255737,
					0.05010519176721573,
					0,
					1
				],
				"metallicFactor":0,
				"roughnessFactor":0.5
			}
		},
		{
			"doubleSided":true,
			"name":"Material.003",
			"pbrMetallicRoughness":{
				"baseColorFactor":[
					0.2048986405134201,
					0.1844746321439743,
					0.11863730102777481,
					1
				],
				"metallicFactor":0,
				"roughnessFactor":0.5
			}
		},
		{
			"doubleSided":true,
			"name":"Blue",
			"pbrMetallicRoughness":{
				"baseColorFactor":[
					0.015004151500761509,
					0,
					0.8000000715255737,
					1
				],
				"metallicFactor":0,
				"roughnessFactor":0.5
			}
		},
		{
			"doubleSided":true,
			"name":"Blue.001",
			"pbrMetallicRoughness":{
				"baseColorFactor":[
					0.015004151500761509,
					0,
					0.8000000715255737,
					1
				],
				"metallicFactor":0,
				"roughnessFactor":0.5
			}
		},
		{
			"doubleSided":true,
			"name":"Material.004",
			"pbrMetallicRoughness":{
				"baseColorFactor":[
					0.7344767451286316,
					0.8000000715255737,
					0.13933919370174408,
					1
				],
				"metallicFactor":0,
				"roughnessFactor":0.5
			}
		},
		{
			"doubleSided":true,
			"name":"Material.002",
			"pbrMetallicRoughness":{
				"baseColorFactor":[
					0.800000011920929,
					0.800000011920929,
					0.800000011920929,
					1
				],
				"metallicFactor":0,
				"roughnessFactor":0.4000000059604645
			}
		},
		{
			"doubleSided":true,
			"emissiveFactor":[
				1,
				0.0008495322545059025,
				0
			],
			"extras":{
				"prop":1.0
			},
			"name":"Material",
			"pbrMetallicRoughness":{
				"baseColorFactor":[
					1,
					0.06605161726474762,
					0,
					1
				],
				"metallicFactor":0,
				"roughnessFactor":0.5
			}
		}
	],
	"meshes":[
		{
			"extras":{
				"spawn_point":true
			},
			"name":"Cube.003",
			"primitives":[
				{
					"attributes":{
						"POSITION":0,
						"NORMAL":1,
						"TEXCOORD_0":2,
						"TANGENT":3
					},
					"indices":4,
					"material":0
				}
			]
		},
		{
			"name":"Plane",
			"primitives":[
				{
					"attributes":{
						"POSITION":5,
						"NORMAL":6,
						"TEXCOORD_0":7,
						"TEXCOORD_1":8,
						"TANGENT":9
					},
					"indices":10,
					"material":1
				}
			]
		},
		{
			"name":"Icosphere",
			"primitives":[
				{
					"attributes":{
						"POSITION":11,
						"NORMAL":12,
						"TEXCOORD_0":13,
						"TANGENT":14
					},
					"indices":15,
					"material":2
				}
			]
		},
		{
			"name":"Cube.007",
			"primitives":[
				{
					"attributes":{
						"POSITION":16,
						"NORMAL":17,
						"TEXCOORD_0":18
					},
					"indices":19,
					"material":3
				}
			]
		},
		{
			"name":"Torus",
			"primitives":[
				{
					"attributes":{
						"POSITION":20,
						"NORMAL":21,
						"TEXCOORD_0":22,
						"TANGENT":23
					},
					"indices":24,
					"material":4
				}
			]
		},
		{
			"name":"Torus.001",
			"primitives":[
				{
					"attributes":{
						"POSITION":25,
						"NORMAL":26,
						"TEXCOORD_0":27,
						"TANGENT":28
					},
					"indices":24,
					"material":5
				}
			]
		},
		{
			"name":"Torus.002",
			"primitives":[
				{
					"attributes":{
						"POSITION":29,
						"NORMAL":30,
						"TEXCOORD_0":31,
						"TANGENT":32
					},
					"indices":33,
					"material":6
				}
			]
		},
		{
			"name":"Cube.001",
			"primitives":[
				{
					"attributes":{
						"POSITION":34,
						"NORMAL":35,
						"TEXCOORD_0":36,
						"TANGENT":37
					},
					"indices":4,
					"material":0
				}
			]
		},
		{
			"extras":{
				"spawn_point":true
			},
			"name":"Cube.002",
			"primitives":[
				{
					"attributes":{
						"POSITION":38,
						"NORMAL":39,
						"TEXCOORD_0":40,
						"TANGENT":41
					},
					"indices":4,
					"material":0
				}
			]
		},
		{
			"name":"Shield.001",
			"primitives":[
				{
					"attributes":{
						"POSITION":42,
						"NORMAL":43,
						"TEXCOORD_0":44,
						"TANGENT":45
					},
					"indices":46,
					"material":7
				}
			]
		},
		{
			"name":"Cube.005",
			"primitives":[
				{
					"attributes":{
						"POSITION":47,
						"NORMAL":48,
						"TEXCOORD_0":49,
						"TANGENT":50
					},
					"indices":4,
					"material":0
				}
			]
		},
		{
			"name":"Cube.006",
			"primitives":[
				{
					"attributes":{
						"POSITION":51,
						"NORMAL":52,
						"TEXCOORD_0":53,
						"TANGENT":54
					},
					"indices":4,
					"material":8
				}
			]
		}
	],
	"textures":[
		{
			"sampler":0,
			"source":0
		},
		{
			"sampler":0,
			"source":1
		}
	],
	"images":[
		{
			"mimeType":"image/jpeg",
			"name":"Concrete_02_n",
			"uri":"Concrete_02_n.jpg"
		},
		{
			"mimeType":"image/png",
			"name":"snow",
			"uri":"snow.png"
		}
	],
	"accessors":[
		{
			"bufferView":0,
			"componentType":5126,
			"count":24,
			"max":[
				0.25,
				0.375,
				0.25
			],
			"min":[
				-0.25,
				-0.375,
				-0.25
			],
			"type":"VEC3"
		},
		{
			"bufferView":1,
			"componentType":5126,
			"count":24,
			"type":"VEC3"
		},
		{
			"bufferView":2,
			"componentType":5126,
			"count":24,
			"type":"VEC2"
		},
		{
			"bufferView":3,
			"componentType":5126,
			"count":24,
			"type":"VEC4"
		},
		{
			"bufferView":4,
			"componentType":5123,
			"count":36,
			"type":"SCALAR"
		},
		{
			"bufferView":5,
			"componentType":5126,
			"count":271,
			"max":[
				1,
				0.26364561915397644,
				1
			],
			"min":[
				-1,
				0,
				-1
			],
			"type":"VEC3"
		},
		{
			"bufferView":6,
			"componentType":5126,
			"count":271,
			"type":"VEC3"
		},
		{
			"bufferView":7,
			"componentType":5126,
			"count":271,
			"type":"VEC2"
		},
		{
			"bufferView":8,
			"componentType":5126,
			"count":271,
			"type":"VEC2"
		},
		{
			"bufferView":9,
			"componentType":5126,
			"count":271,
			"type":"VEC4"
		},
		{
			"bufferView":10,
			"componentType":5123,
			"count":600,
			"type":"SCALAR"
		},
		{
			"bufferView":11,
			"componentType":5126,
			"count":240,
			"max":[
				0.9510578513145447,
				1,
				0.9999999403953552
			],
			"min":[
				-0.9510578513145447,
				-1,
				-0.9999999403953552
			],
			"type":"VEC3"
		},
		{
			"bufferView":12,
			"componentType":5126,
			"count":240,
			"type":"VEC3"
		},
		{
			"bufferView":13,
			"componentType":5126,
			"count":240,
			"type":"VEC2"
		},
		{
			"bufferView":14,
			"componentType":5126,
			"count":240,
			"type":"VEC4"
		},
		{
			"bufferView":15,
			"componentType":5123,
			"count":240,
			"type":"SCALAR"
		},
		{
			"bufferView":16,
			"componentType":5126,
			"count":104,
			"max":[
				0.5442180633544922,
				0.5,
				0.5062326192855835
			],
			"min":[
				-0.4557819366455078,
				-0.5,
				-0.4937673807144165
			],
			"type":"VEC3"
		},
		{
			"bufferView":17,
			"componentType":5126,
			"count":104,
			"type":"VEC3"
		},
		{
			"bufferView":18,
			"componentType":5126,
			"count":104,
			"type":"VEC2"
		},
		{
			"bufferView":19,
			"componentType":5123,
			"count":180,
			"type":"SCALAR"
		},
		{
			"bufferView":20,
			"componentType":5126,
			"count":2304,
			"max":[
				1.25,
				0.25,
				1.25
			],
			"min":[
				-1.25,
				-0.25,
				-1.25
			],
			"type":"VEC3"
		},
		{
			"bufferView":21,
			"componentType":5126,
			"count":2304,
			"type":"VEC3"
		},
		{
			"bufferView":22,
			"componentType":5126,
			"count":2304,
			"type":"VEC2"
		},
		{
			"bufferView":23,
			"componentType":5126,
			"count":2304,
			"type":"VEC4"
		},
		{
			"bufferView":24,
			"componentType":5123,
			"count":3456,
			"type":"SCALAR"
		},
		{
			"bufferView":25,
			"componentType":5126,
			"count":2304,
			"max":[
				1.25,
				0.25,
				1.25
			],
			"min":[
				-1.25,
				-0.25,
				-1.25
			],
			"type":"VEC3"
		},
		{
			"bufferView":26,
			"componentType":5126,
			"count":2304,
			"type":"VEC3"
		},
		{
			"bufferView":27,
			"componentType":5126,
			"count":2304,
			"type":"VEC2"
		},
		{
			"bufferView":28,
			"componentType":5126,
			"count":2304,
			"type":"VEC4"
		},
		{
			"bufferView":29,
			"componentType":5126,
			"count":637,
			"max":[
				5.626347064971924,
				2.4564390182495117,
				5.626347064971924
			],
			"min":[
				-5.626347064971924,
				-2.4564390182495117,
				-5.626347064971924
			],
			"type":"VEC3"
		},
		{
			"bufferView":30,
			"componentType":5126,
			"count":637,
			"type":"VEC3"
		},
		{
			"bufferView":31,
			"componentType":5126,
			"count":637,
			"type":"VEC2"
		},
		{
			"bufferView":32,
			"componentType":5126,
			"count":637,
			"type":"VEC4"
		},
		{
			"bufferView":33,
			"componentType":5123,
			"count":3456,
			"type":"SCALAR"
		},
		{
			"bufferView":34,
			"componentType":5126,
			"count":24,
			"max":[
				1,
				0.09221053123474121,
				1
			],
			"min":[
				-1,
				-0.09221053123474121,
				-1
			],
			"type":"VEC3"
		},
		{
			"bufferView":35,
			"componentType":5126,
			"count":24,
			"type":"VEC3"
		},
		{
			"bufferView":36,
			"componentType":5126,
			"count":24,
			"type":"VEC2"
		},
		{
			"bufferView":37,
			"componentType":5126,
			"count":24,
			"type":"VEC4"
		},
		{
			"bufferView":38,
			"componentType":5126,
			"count":24,
			"max":[
				0.25,
				0.375,
				0.25
			],
			"min":[
				-0.25,
				-0.375,
				-0.25
			],
			"type":"VEC3"
		},
		{
			"bufferView":39,
			"componentType":5126,
			"count":24,
			"type":"VEC3"
		},
		{
			"bufferView":40,
			"componentType":5126,
			"count":24,
			"type":"VEC2"
		},
		{
			"bufferView":41,
			"componentType":5126,
			"count":24,
			"type":"VEC4"
		},
		{
			"bufferView":42,
			"componentType":5126,
			"count":164,
			"max":[
				0.0596998892724514,
				0.514474630355835,
				0.25
			],
			"min":[
				-0.0596998892724514,
				0,
				-0.25
			],
			"type":"VEC3"
		},
		{
			"bufferView":43,
			"componentType":5126,
			"count":164,
			"type":"VEC3"
		},
		{
			"bufferView":44,
			"componentType":5126,
			"count":164,
			"type":"VEC2"
		},
		{
			"bufferView":45,
			"componentType":5126,
			"count":164,
			"type":"VEC4"
		},
		{
			"bufferView":46,
			"componentType":5123,
			"count":204,
			"type":"SCALAR"
		},
		{
			"bufferView":47,
			"componentType":5126,
			"count":24,
			"max":[
				1,
				0.09221053123474121,
				1
			],
			"min":[
				-1,
				-0.09221053123474121,
				-1
			],
			"type":"VEC3"
		},
		{
			"bufferView":48,
			"componentType":5126,
			"count":24,
			"type":"VEC3"
		},
		{
			"bufferView":49,
			"componentType":5126,
			"count":24,
			"type":"VEC2"
		},
		{
			"bufferView":50,
			"componentType":5126,
			"count":24,
			"type":"VEC4"
		},
		{
			"bufferView":51,
			"componentType":5126,
			"count":24,
			"max":[
				0.8827579617500305,
				0.26921021938323975,
				0.7834494113922119
			],
			"min":[
				-0.8827579617500305,
				-0.26921021938323975,
				-0.7834494113922119
			],
			"type":"VEC3"
		},
		{
			"bufferView":52,
			"componentType":5126,
			"count":24,
			"type":"VEC3"
		},
		{
			"bufferView":53,
			"componentType":5126,
			"count":24,
			"type":"VEC2"
		},
		{
			"bufferView":54,
			"componentType":5126,
			"count":24,
			"type":"VEC4"
		}
	],
	"bufferViews":[
		{
			"buffer":0,
			"byteLength":288,
			"byteOffset":0,
			"target":34962
		},
		{
			"buffer":0,
			"byteLength":288,
			"byteOffset":288,
			"target":34962
		},
		{
			"buffer":0,
			"byteLength":192,
			"byteOffset":576,
			"target":34962
		},
		{
			"buffer":0,
			"byteLength":384,
			"byteOffset":768,
			"target":34962
		},
		{
			"buffer":0,
			"byteLength":72,
			"byteOffset":1152,
			"target":34963
		},
		{
			"buffer":0,
			"byteLength":3252,
			"byteOffset":1224,
			"target":34962
		},
		{
			"buffer":0,
			"byteLength":3252,
			"byteOffset":4476,
			"target":34962
		},
		{
			"buffer":0,
			"byteLength":2168,
			"byteOffset":7728,
			"target":34962
		},
		{
			"buffer":0,
			"byteLength":2168,
			"byteOffset":9896,
			"target":34962
		},
		{
			"buffer":0,
			"byteLength":4336,
			"byteOffset":12064,
			"target":34962
		},
		{
			"buffer":0,
			"byteLength":1200,
			"byteOffset":16400,
			"target":34963
		},
		{
			"buffer":0,
			"byteLength":2880,
			"byteOffset":17600,
			"target":34962
		},
		{
			"buffer":0,
			"byteLength":2880,
			"byteOffset":20480,
			"target":34962
		},
		{
			"buffer":0,
			"byteLength":1920,
			"byteOffset":23360,
			"target":34962
		},
		{
			"buffer":0,
			"byteLength":3840,
			"byteOffset":25280,
			"target":34962
		},
		{
			"buffer":0,
			"byteLength":480,
			"byteOffset":29120,
			"target":34963
		},
		{
			"buffer":0,
			"byteLength":1248,
			"byteOffset":29600,
			"target":34962
		},
		{
			"buffer":0,
			"byteLength":1248,
			"byteOffset":30848,
			"target":34962
		},
		{
			"buffer":0,
			"byteLength":832,
			"byteOffset":32096,
			"target":34962
		},
		{
			"buffer":0,
			"byteLength":360,
			"byteOffset":32928,
			"target":34963
		},
		{
			"buffer":0,
			"byteLength":27648,
			"byteOffset":33288,
			"target":34962
		},
		{
			"buffer":0,
			"byteLength":27648,
			"byteOffset":60936,
			"target":34962
		},
		{
			"buffer":0,
			"byteLength":18432,
			"byteOffset":88584,
			"target":34962
		},
		{
			"buffer":0,
			"byteLength":36864,
			"byteOffset":107016,
			"target":34962
		},
		{
			"buffer":0,
			"byteLength":6912,
			"byteOffset":143880,
			"target":34963
		},
		{
			"buffer":0,
			"byteLength":27648,
			"byteOffset":150792,
			"target":34962
		},
		{
			"buffer":0,
			"byteLength":27648,
			"byteOffset":178440,
			"target":34962
		},
		{
			"buffer":0,
			"byteLength":18432,
			"byteOffset":206088,
			"target":34962
		},
		{
			"buffer":0,
			"byteLength":36864,
			"byteOffset":224520,
			"target":34962
		},
		{
			"buffer":0,
			"byteLength":7644,
			"byteOffset":261384,
			"target":34962
		},
		{
			"buffer":0,
			"byteLength":7644,
			"byteOffset":269028,
			"target":34962
		},
		{
			"buffer":0,
			"byteLength":5096,
			"byteOffset":276672,
			"target":34962
		},
		{
			"buffer":0,
			"byteLength":10192,
			"byteOffset":281768,
			"target":34962
		},
		{
			"buffer":0,
			"byteLength":6912,
			"byteOffset":291960,
			"target":34963
		},
		{
			"buffer":0,
			"byteLength":288,
			"byteOffset":298872,
			"target":34962
		},
		{
			"buffer":0,
			"byteLength":288,
			"byteOffset":299160,
			"target":34962
		},
		{
			"buffer":0,
			"byteLength":192,
			"byteOffset":299448,
			"target":34962
		},
		{
			"buffer":0,
			"byteLength":384,
			"byteOffset":299640,
			"target":34962
		},
		{
			"buffer":0,
			"byteLength":288,
			"byteOffset":300024,
			"target":34962
		},
		{
			"buffer":0,
			"byteLength":288,
			"byteOffset":300312,
			"target":34962
		},
		{
			"buffer":0,
			"byteLength":192,
			"byteOffset":300600,
			"target":34962
		},
		{
			"buffer":0,
			"byteLength":384,
			"byteOffset":300792,
			"target":34962
		},
		{
			"buffer":0,
			"byteLength":1968,
			"byteOffset":301176,
			"target":34962
		},
		{
			"buffer":0,
			"byteLength":1968,
			"byteOffset":303144,
			"target":34962
		},
		{
			"buffer":0,
			"byteLength":1312,
			"byteOffset":305112,
			"target":34962
		},
		{
			"buffer":0,
			"byteLength":2624,
			"byteOffset":306424,
			"target":34962
		},
		{
			"buffer":0,
			"byteLength":408,
			"byteOffset":309048,
			"target":34963
		},
		{
			"buffer":0,
			"byteLength":288,
			"byteOffset":309456,
			"target":34962
		},
		{
			"buffer":0,
			"byteLength":288,
			"byteOffset":309744,
			"target":34962
		},
		{
			"buffer":0,
			"byteLength":192,
			"byteOffset":310032,
			"target":34962
		},
		{
			"buffer":0,
			"byteLength":384,
			"byteOffset":310224,
			"target":34962
		},
		{
			"buffer":0,
			"byteLength":288,
			"byteOffset":310608,
			"target":34962
		},
		{
			"buffer":0,
			"byteLength":288,
			"byteOffset":310896,
			"target":34962
		},
		{
			"buffer":0,
			"byteLength":192,
			"byteOffset":311184,
			"target":34962
		},
		{
			"buffer":0,
			"byteLength":384,
			"byteOffset":311376,
			"target":34962
		}
	],
	"samplers":[
		{
			"magFilter":9729,
			"minFilter":9987
		}
	],
	"buffers":[
		{
			"byteLength":311760,
			"uri":"map.bin"
		}
	]
}
