{
	"asset":{
		"generator":"Khronos glTF Blender I/O v3.6.27",
		"version":"2.0"
	},
	"extensionsUsed":[
		"KHR_materials_specular",
		"KHR_materials_ior",
		"KHR_lights_punctual"
	],
	"extensionsRequired":[
		"KHR_lights_punctual"
	],
	"extensions":{
		"KHR_lights_punctual":{
			"lights":[
				{
					"color":[
						1,
						1,
						1
					],
					"intensity":683,
					"type":"directional",
					"name":"Sun"
				}
			]
		}
	},
	"scene":0,
	"scenes":[
		{
			"name":"Scene",
			"nodes":[
				0,
				1,
				2,
				3,
				4,
				5,
				6,
				7,
				8,
				9,
				10,
				11,
				12,
				13,
				14,
				15,
				16,
				17,
				18,
				19
			]
		}
	],
	"nodes":[
		{
			"mesh":0,
			"name":"Line002",
			"rotation":[
				0.7071068286895752,
				0,
				0,
				0.7071068286895752
			],
			"scale":[
				0.5435374975204468,
				0.5435374975204468,
				0.5435374975204468
			],
			"translation":[
				54.90499496459961,
				-2.2088828086853027,
				-17.62330436706543
			]
		},
		{
			"mesh":1,
			"name":"House1",
			"rotation":[
				0,
				0.7071068286895752,
				0,
				0.7071067094802856
			],
			"scale":[
				0.5,
				0.5,
				0.5
			],
			"translation":[
				-40.96272659301758,
				-0.2004646211862564,
				-37.44374084472656
			]
		},
		{
			"mesh":2,
			"name":"House 2",
			"rotation":[
				0,
				1,
				0,
				4.331257628109597e-07
			],
			"scale":[
				0.5,
				0.5,
				0.5
			],
			"translation":[
				-6.405665397644043,
				-0.2004646211862564,
				-62.0571403503418
			]
		},
		{
			"mesh":3,
			"name":"Tower",
			"scale":[
				0.5,
				0.5,
				0.5
			],
			"translation":[
				20.167186737060547,
				-0.2004646211862564,
				-36.28150177001953
			]
		},
		{
			"mesh":4,
			"name":"Rock02",
			"scale":[
				0.5,
				0.5,
				0.5
			],
			"translation":[
				-23.73406982421875,
				-0.2004646211862564,
				-16.952672958374023
			]
		},
		{
			"mesh":5,
			"name":"Rock01",
			"scale":[
				0.5,
				0.5,
				0.5
			],
			"translation":[
				-20.922882080078125,
				-0.2004646211862564,
				-16.952672958374023
			]
		},
		{
			"mesh":6,
			"name":"Rock03",
			"scale":[
				0.5,
				0.5,
				0.5
			],
			"translation":[
				-21.968647003173828,
				-0.2004646211862564,
				-14.450132369995117
			]
		},
		{
			"mesh":7,
			"name":"Street lamp03",
			"scale":[
				0.5,
				0.5,
				0.5
			],
			"translation":[
				-17.59381675720215,
				-0.2004646211862564,
				-13.581602096557617
			]
		},
		{
			"mesh":8,
			"name":"Street lamp01",
			"scale":[
				0.5,
				0.5,
				0.5
			],
			"translation":[
				28.215362548828125,
				-0.2004646211862564,
				-32.71990203857422
			]
		},
		{
			"mesh":9,
			"name":"Tower001",
			"scale":[
				0.5,
				0.5,
				0.5
			],
			"translation":[
				-44.794124603271484,
				-0.2004646211862564,
				-11.131705284118652
			]
		},
		{
			"mesh":10,
			"name":"Street lamp02",
			"scale":[
				0.5,
				0.5,
				0.5
			],
			"translation":[
				13.535194396972656,
				-0.2004646211862564,
				6.259428024291992
			]
		},
		{
			"mesh":11,
			"name":"Rock04",
			"scale":[
				0.5,
				0.5,
				0.5
			],
			"translation":[
				-8.201271057128906,
				-0.2004646211862564,
				-38.9990234375
			]
		},
		{
			"mesh":12,
			"name":"House 3",
			"rotation":[
				0,
				-0.043619271367788315,
				0,
				0.9990482330322266
			],
			"scale":[
				0.5,
				0.5,
				0.5
			],
			"translation":[
				-15.748427391052246,
				-0.2004646211862564,
				4.551103591918945
			]
		},
		{
			"extensions":{
				"KHR_lights_punctual":{
					"light":0
				}
			},
			"name":"Sun",
			"rotation":[
				-0.5659760236740112,
				-0.20915906131267548,
				0.23086823523044586,
				0.7632977962493896
			],
			"translation":[
				0,
				10.677692413330078,
				0
			]
		},
		{
			"extras":{
				"spawn_point_team":1
			},
			"mesh":13,
			"name":"SpawnPoint.009",
			"rotation":[
				0,
				0.7071068286895752,
				0,
				0.7071068286895752
			],
			"translation":[
				10.712209701538086,
				-0.15780258178710938,
				29.580669403076172
			]
		},
		{
			"extras":{
				"spawn_point_team":1
			},
			"mesh":13,
			"name":"SpawnPoint.001",
			"rotation":[
				0,
				0.7071068286895752,
				0,
				0.7071068286895752
			],
			"translation":[
				47.78455352783203,
				-0.15780258178710938,
				-56.31275939941406
			]
		},
		{
			"extras":{
				"spawn_point_team":1
			},
			"mesh":13,
			"name":"SpawnPoint.002",
			"rotation":[
				0,
				0.7071068286895752,
				0,
				0.7071068286895752
			],
			"translation":[
				-24.633468627929688,
				-0.15780258178710938,
				-73.41735076904297
			]
		},
		{
			"extras":{
				"spawn_point_team":1
			},
			"mesh":13,
			"name":"SpawnPoint.003",
			"rotation":[
				0,
				0.7071068286895752,
				0,
				0.7071068286895752
			],
			"translation":[
				-57.73798751831055,
				-0.15780258178710938,
				9.927192687988281
			]
		},
		{
			"extras":{
				"spawn_point_team":1
			},
			"mesh":13,
			"name":"SpawnPoint.004",
			"rotation":[
				0,
				0.7071068286895752,
				0,
				0.7071068286895752
			],
			"translation":[
				57.55506896972656,
				-0.15780258178710938,
				-15.604011535644531
			]
		},
		{
			"extras":{
				"pickup":"shield"
			},
			"mesh":14,
			"name":"Shield",
			"translation":[
				-6.190101623535156,
				2.693166732788086,
				-51.77043914794922
			]
		}
	],
	"materials":[
		{
			"doubleSided":true,
			"extensions":{
				"KHR_materials_specular":{
					"specularColorFactor":[
						0,
						0,
						0
					]
				},
				"KHR_materials_ior":{
					"ior":1.4500000476837158
				}
			},
			"name":"Material #227",
			"pbrMetallicRoughness":{
				"baseColorTexture":{
					"index":0
				},
				"roughnessFactor":0.858578622341156
			}
		},
		{
			"doubleSided":true,
			"extensions":{
				"KHR_materials_specular":{
					"specularColorFactor":[
						0,
						0,
						0
					]
				},
				"KHR_materials_ior":{
					"ior":1.4500000476837158
				}
			},
			"name":"Material #45",
			"pbrMetallicRoughness":{
				"baseColorTexture":{
					"index":1
				},
				"roughnessFactor":0.858578622341156
			}
		},
		{
			"doubleSided":true,
			"extensions":{
				"KHR_materials_specular":{
					"specularColorFactor":[
						0,
						0,
						0
					]
				},
				"KHR_materials_ior":{
					"ior":1.4500000476837158
				}
			},
			"name":"Material #66",
			"pbrMetallicRoughness":{
				"baseColorTexture":{
					"index":2
				},
				"roughnessFactor":0.858578622341156
			}
		},
		{
			"doubleSided":true,
			"extensions":{
				"KHR_materials_specular":{
					"specularColorFactor":[
						0,
						0,
						0
					]
				},
				"KHR_materials_ior":{
					"ior":1.4500000476837158
				}
			},
			"name":"Material #128",
			"pbrMetallicRoughness":{
				"baseColorTexture":{
					"index":3
				},
				"roughnessFactor":0.858578622341156
			}
		},
		{
			"doubleSided":true,
			"extensions":{
				"KHR_materials_specular":{
					"specularColorFactor":[
						0,
						0,
						0
					]
				},
				"KHR_materials_ior":{
					"ior":1.4500000476837158
				}
			},
			"name":"Material #206",
			"pbrMetallicRoughness":{
				"baseColorTexture":{
					"index":4
				},
				"roughnessFactor":0.858578622341156
			}
		},
		{
			"doubleSided":true,
			"extensions":{
				"KHR_materials_specular":{
					"specularColorFactor":[
						0,
						0,
						0
					]
				},
				"KHR_materials_ior":{
					"ior":1.4500000476837158
				}
			},
			"name":"Material #185",
			"pbrMetallicRoughness":{
				"baseColorTexture":{
					"index":5
				},
				"roughnessFactor":0.858578622341156
			}
		},
		{
			"doubleSided":true,
			"extensions":{
				"KHR_materials_specular":{
					"specularColorFactor":[
						0,
						0,
						0
					]
				},
				"KHR_materials_ior":{
					"ior":1.4500000476837158
				}
			},
			"name":"Material #107",
			"pbrMetallicRoughness":{
				"baseColorTexture":{
					"index":6
				},
				"roughnessFactor":0.858578622341156
			}
		},
		{
			"doubleSided":true,
			"name":"Material.001",
			"pbrMetallicRoughness":{
				"baseColorFactor":[
					0.800000011920929,
					0.800000011920929,
					0.800000011920929,
					1
				],
				"metallicFactor":0,
				"roughnessFactor":0.4000000059604645
			}
		}
	],
	"meshes":[
		{
			"name":"Mesh",
			"primitives":[
				{
					"attributes":{
						"POSITION":0,
						"NORMAL":1,
						"TEXCOORD_0":2
					},
					"indices":3,
					"material":0
				}
			]
		},
		{
			"name":"Mesh.001",
			"primitives":[
				{
					"attributes":{
						"POSITION":4,
						"NORMAL":5,
						"TEXCOORD_0":6
					},
					"indices":7,
					"material":1
				}
			]
		},
		{
			"name":"Mesh.002",
			"primitives":[
				{
					"attributes":{
						"POSITION":8,
						"NORMAL":9,
						"TEXCOORD_0":10
					},
					"indices":11,
					"material":2
				}
			]
		},
		{
			"name":"Mesh.003",
			"primitives":[
				{
					"attributes":{
						"POSITION":12,
						"NORMAL":13,
						"TEXCOORD_0":14
					},
					"indices":15,
					"material":3
				}
			]
		},
		{
			"name":"Mesh.004",
			"primitives":[
				{
					"attributes":{
						"POSITION":16,
						"NORMAL":17,
						"TEXCOORD_0":18
					},
					"indices":19,
					"material":4
				}
			]
		},
		{
			"name":"Mesh.005",
			"primitives":[
				{
					"attributes":{
						"POSITION":20,
						"NORMAL":21,
						"TEXCOORD_0":22
					},
					"indices":23,
					"material":4
				}
			]
		},
		{
			"name":"Mesh.006",
			"primitives":[
				{
					"attributes":{
						"POSITION":24,
						"NORMAL":25,
						"TEXCOORD_0":26
					},
					"indices":27,
					"material":4
				}
			]
		},
		{
			"name":"Mesh.007",
			"primitives":[
				{
					"attributes":{
						"POSITION":28,
						"NORMAL":29,
						"TEXCOORD_0":30
					},
					"indices":31,
					"material":5
				}
			]
		},
		{
			"name":"Mesh.008",
			"primitives":[
				{
					"attributes":{
						"POSITION":32,
						"NORMAL":33,
						"TEXCOORD_0":34
					},
					"indices":31,
					"material":5
				}
			]
		},
		{
			"name":"Mesh.009",
			"primitives":[
				{
					"attributes":{
						"POSITION":35,
						"NORMAL":36,
						"TEXCOORD_0":37
					},
					"indices":38,
					"material":3
				}
			]
		},
		{
			"name":"Mesh.010",
			"primitives":[
				{
					"attributes":{
						"POSITION":39,
						"NORMAL":40,
						"TEXCOORD_0":41
					},
					"indices":31,
					"material":5
				}
			]
		},
		{
			"name":"Mesh.011",
			"primitives":[
				{
					"attributes":{
						"POSITION":42,
						"NORMAL":43,
						"TEXCOORD_0":44
					},
					"indices":45,
					"material":4
				}
			]
		},
		{
			"name":"Mesh.012",
			"primitives":[
				{
					"attributes":{
						"POSITION":46,
						"NORMAL":47,
						"TEXCOORD_0":48
					},
					"indices":49,
					"material":6
				}
			]
		},
		{
			"name":"Cube",
			"primitives":[
				{
					"attributes":{
						"POSITION":50,
						"NORMAL":51,
						"TEXCOORD_0":52
					},
					"indices":53
				}
			]
		},
		{
			"name":"Shield",
			"primitives":[
				{
					"attributes":{
						"POSITION":54,
						"NORMAL":55,
						"TEXCOORD_0":56
					},
					"indices":57,
					"material":7
				}
			]
		}
	],
	"textures":[
		{
			"sampler":0,
			"source":0
		},
		{
			"sampler":0,
			"source":1
		},
		{
			"sampler":0,
			"source":2
		},
		{
			"sampler":0,
			"source":3
		},
		{
			"sampler":0,
			"source":4
		},
		{
			"sampler":0,
			"source":5
		},
		{
			"sampler":0,
			"source":6
		}
	],
	"images":[
		{
			"mimeType":"image/png",
			"name":"Ground",
			"uri":"Ground.png"
		},
		{
			"mimeType":"image/png",
			"name":"House_01",
			"uri":"House_01.png"
		},
		{
			"mimeType":"image/png",
			"name":"House_02",
			"uri":"House_02.png"
		},
		{
			"mimeType":"image/png",
			"name":"Tower",
			"uri":"Tower.png"
		},
		{
			"mimeType":"image/png",
			"name":"Rock_01",
			"uri":"Rock_01.png"
		},
		{
			"mimeType":"image/png",
			"name":"Street_lamp_01",
			"uri":"Street_lamp_01.png"
		},
		{
			"mimeType":"image/png",
			"name":"House_03",
			"uri":"House_03.png"
		}
	],
	"accessors":[
		{
			"bufferView":0,
			"componentType":5126,
			"count":386,
			"max":[
				47.60325622558594,
				158.24789428710938,
				8.528943061828613
			],
			"min":[
				-268.8266906738281,
				-158.24789428710938,
				-3.7686140537261963
			],
			"type":"VEC3"
		},
		{
			"bufferView":1,
			"componentType":5126,
			"count":386,
			"type":"VEC3"
		},
		{
			"bufferView":2,
			"componentType":5126,
			"count":386,
			"type":"VEC2"
		},
		{
			"bufferView":3,
			"componentType":5123,
			"count":1155,
			"type":"SCALAR"
		},
		{
			"bufferView":4,
			"componentType":5126,
			"count":1692,
			"max":[
				23.106590270996094,
				37.6179313659668,
				35.61240768432617
			],
			"min":[
				-23.106590270996094,
				0.0020192896481603384,
				-19.43946075439453
			],
			"type":"VEC3"
		},
		{
			"bufferView":5,
			"componentType":5126,
			"count":1692,
			"type":"VEC3"
		},
		{
			"bufferView":6,
			"componentType":5126,
			"count":1692,
			"type":"VEC2"
		},
		{
			"bufferView":7,
			"componentType":5123,
			"count":3024,
			"type":"SCALAR"
		},
		{
			"bufferView":8,
			"componentType":5126,
			"count":3022,
			"max":[
				28.565811157226562,
				56.78363037109375,
				23.13490104675293
			],
			"min":[
				-26.77900505065918,
				-0.0452117919921875,
				-32.51165008544922
			],
			"type":"VEC3"
		},
		{
			"bufferView":9,
			"componentType":5126,
			"count":3022,
			"type":"VEC3"
		},
		{
			"bufferView":10,
			"componentType":5126,
			"count":3022,
			"type":"VEC2"
		},
		{
			"bufferView":11,
			"componentType":5123,
			"count":5694,
			"type":"SCALAR"
		},
		{
			"bufferView":12,
			"componentType":5126,
			"count":1732,
			"max":[
				11.756623268127441,
				84.4536361694336,
				11.756623268127441
			],
			"min":[
				-11.75662612915039,
				0,
				-11.756623268127441
			],
			"type":"VEC3"
		},
		{
			"bufferView":13,
			"componentType":5126,
			"count":1732,
			"type":"VEC3"
		},
		{
			"bufferView":14,
			"componentType":5126,
			"count":1732,
			"type":"VEC2"
		},
		{
			"bufferView":15,
			"componentType":5123,
			"count":4146,
			"type":"SCALAR"
		},
		{
			"bufferView":16,
			"componentType":5126,
			"count":33,
			"max":[
				2.0975377559661865,
				2.7897772789001465,
				2.04964017868042
			],
			"min":[
				-3.5212550163269043,
				-3.1750762365416116e-14,
				-2.439678192138672
			],
			"type":"VEC3"
		},
		{
			"bufferView":17,
			"componentType":5126,
			"count":33,
			"type":"VEC3"
		},
		{
			"bufferView":18,
			"componentType":5126,
			"count":33,
			"type":"VEC2"
		},
		{
			"bufferView":19,
			"componentType":5123,
			"count":168,
			"type":"SCALAR"
		},
		{
			"bufferView":20,
			"componentType":5126,
			"count":35,
			"max":[
				2.2171993255615234,
				4.490074157714844,
				2.04964017868042
			],
			"min":[
				-3.1147851943969727,
				-3.1750762365416116e-14,
				-2.881676197052002
			],
			"type":"VEC3"
		},
		{
			"bufferView":21,
			"componentType":5126,
			"count":35,
			"type":"VEC3"
		},
		{
			"bufferView":22,
			"componentType":5126,
			"count":35,
			"type":"VEC2"
		},
		{
			"bufferView":23,
			"componentType":5123,
			"count":180,
			"type":"SCALAR"
		},
		{
			"bufferView":24,
			"componentType":5126,
			"count":35,
			"max":[
				1.4799742698669434,
				2.5398356914520264,
				2.0350427627563477
			],
			"min":[
				-2.4076240062713623,
				-3.771252465867292e-08,
				-1.7609829902648926
			],
			"type":"VEC3"
		},
		{
			"bufferView":25,
			"componentType":5126,
			"count":35,
			"type":"VEC3"
		},
		{
			"bufferView":26,
			"componentType":5126,
			"count":35,
			"type":"VEC2"
		},
		{
			"bufferView":27,
			"componentType":5123,
			"count":180,
			"type":"SCALAR"
		},
		{
			"bufferView":28,
			"componentType":5126,
			"count":225,
			"max":[
				1.7571041584014893,
				16.680931091308594,
				1.5217068195343018
			],
			"min":[
				-1.7570998668670654,
				0.014264385215938091,
				-1.521681785583496
			],
			"type":"VEC3"
		},
		{
			"bufferView":29,
			"componentType":5126,
			"count":225,
			"type":"VEC3"
		},
		{
			"bufferView":30,
			"componentType":5126,
			"count":225,
			"type":"VEC2"
		},
		{
			"bufferView":31,
			"componentType":5123,
			"count":498,
			"type":"SCALAR"
		},
		{
			"bufferView":32,
			"componentType":5126,
			"count":225,
			"max":[
				1.7571041584014893,
				16.680931091308594,
				1.5217068195343018
			],
			"min":[
				-1.7570998668670654,
				0.014264385215938091,
				-1.521681785583496
			],
			"type":"VEC3"
		},
		{
			"bufferView":33,
			"componentType":5126,
			"count":225,
			"type":"VEC3"
		},
		{
			"bufferView":34,
			"componentType":5126,
			"count":225,
			"type":"VEC2"
		},
		{
			"bufferView":35,
			"componentType":5126,
			"count":1732,
			"max":[
				11.756622314453125,
				84.4536361694336,
				11.75662612915039
			],
			"min":[
				-11.756622314453125,
				0,
				-11.756622314453125
			],
			"type":"VEC3"
		},
		{
			"bufferView":36,
			"componentType":5126,
			"count":1732,
			"type":"VEC3"
		},
		{
			"bufferView":37,
			"componentType":5126,
			"count":1732,
			"type":"VEC2"
		},
		{
			"bufferView":38,
			"componentType":5123,
			"count":4146,
			"type":"SCALAR"
		},
		{
			"bufferView":39,
			"componentType":5126,
			"count":225,
			"max":[
				1.7571041584014893,
				16.680931091308594,
				1.5217068195343018
			],
			"min":[
				-1.7570998668670654,
				0.014264385215938091,
				-1.521681785583496
			],
			"type":"VEC3"
		},
		{
			"bufferView":40,
			"componentType":5126,
			"count":225,
			"type":"VEC3"
		},
		{
			"bufferView":41,
			"componentType":5126,
			"count":225,
			"type":"VEC2"
		},
		{
			"bufferView":42,
			"componentType":5126,
			"count":171,
			"max":[
				15.606154441833496,
				5.836759567260742,
				16.804664611816406
			],
			"min":[
				-3.5212550163269043,
				-3.771252465867292e-08,
				-7.314590930938721
			],
			"type":"VEC3"
		},
		{
			"bufferView":43,
			"componentType":5126,
			"count":171,
			"type":"VEC3"
		},
		{
			"bufferView":44,
			"componentType":5126,
			"count":171,
			"type":"VEC2"
		},
		{
			"bufferView":45,
			"componentType":5123,
			"count":876,
			"type":"SCALAR"
		},
		{
			"bufferView":46,
			"componentType":5126,
			"count":1089,
			"max":[
				46.0317497253418,
				37.511627197265625,
				21.29636001586914
			],
			"min":[
				-17.224409103393555,
				-0.05144309997558594,
				-31.898012161254883
			],
			"type":"VEC3"
		},
		{
			"bufferView":47,
			"componentType":5126,
			"count":1089,
			"type":"VEC3"
		},
		{
			"bufferView":48,
			"componentType":5126,
			"count":1089,
			"type":"VEC2"
		},
		{
			"bufferView":49,
			"componentType":5123,
			"count":1896,
			"type":"SCALAR"
		},
		{
			"bufferView":50,
			"componentType":5126,
			"count":24,
			"max":[
				0.375,
				1.5,
				0.375
			],
			"min":[
				-0.375,
				0,
				-0.375
			],
			"type":"VEC3"
		},
		{
			"bufferView":51,
			"componentType":5126,
			"count":24,
			"type":"VEC3"
		},
		{
			"bufferView":52,
			"componentType":5126,
			"count":24,
			"type":"VEC2"
		},
		{
			"bufferView":53,
			"componentType":5123,
			"count":36,
			"type":"SCALAR"
		},
		{
			"bufferView":54,
			"componentType":5126,
			"count":148,
			"max":[
				0.0596998892724514,
				0.514474630355835,
				0.25
			],
			"min":[
				-0.0596998892724514,
				0,
				-0.25
			],
			"type":"VEC3"
		},
		{
			"bufferView":55,
			"componentType":5126,
			"count":148,
			"type":"VEC3"
		},
		{
			"bufferView":56,
			"componentType":5126,
			"count":148,
			"type":"VEC2"
		},
		{
			"bufferView":57,
			"componentType":5123,
			"count":204,
			"type":"SCALAR"
		}
	],
	"bufferViews":[
		{
			"buffer":0,
			"byteLength":4632,
			"byteOffset":0,
			"target":34962
		},
		{
			"buffer":0,
			"byteLength":4632,
			"byteOffset":4632,
			"target":34962
		},
		{
			"buffer":0,
			"byteLength":3088,
			"byteOffset":9264,
			"target":34962
		},
		{
			"buffer":0,
			"byteLength":2310,
			"byteOffset":12352,
			"target":34963
		},
		{
			"buffer":0,
			"byteLength":20304,
			"byteOffset":14664,
			"target":34962
		},
		{
			"buffer":0,
			"byteLength":20304,
			"byteOffset":34968,
			"target":34962
		},
		{
			"buffer":0,
			"byteLength":13536,
			"byteOffset":55272,
			"target":34962
		},
		{
			"buffer":0,
			"byteLength":6048,
			"byteOffset":68808,
			"target":34963
		},
		{
			"buffer":0,
			"byteLength":36264,
			"byteOffset":74856,
			"target":34962
		},
		{
			"buffer":0,
			"byteLength":36264,
			"byteOffset":111120,
			"target":34962
		},
		{
			"buffer":0,
			"byteLength":24176,
			"byteOffset":147384,
			"target":34962
		},
		{
			"buffer":0,
			"byteLength":11388,
			"byteOffset":171560,
			"target":34963
		},
		{
			"buffer":0,
			"byteLength":20784,
			"byteOffset":182948,
			"target":34962
		},
		{
			"buffer":0,
			"byteLength":20784,
			"byteOffset":203732,
			"target":34962
		},
		{
			"buffer":0,
			"byteLength":13856,
			"byteOffset":224516,
			"target":34962
		},
		{
			"buffer":0,
			"byteLength":8292,
			"byteOffset":238372,
			"target":34963
		},
		{
			"buffer":0,
			"byteLength":396,
			"byteOffset":246664,
			"target":34962
		},
		{
			"buffer":0,
			"byteLength":396,
			"byteOffset":247060,
			"target":34962
		},
		{
			"buffer":0,
			"byteLength":264,
			"byteOffset":247456,
			"target":34962
		},
		{
			"buffer":0,
			"byteLength":336,
			"byteOffset":247720,
			"target":34963
		},
		{
			"buffer":0,
			"byteLength":420,
			"byteOffset":248056,
			"target":34962
		},
		{
			"buffer":0,
			"byteLength":420,
			"byteOffset":248476,
			"target":34962
		},
		{
			"buffer":0,
			"byteLength":280,
			"byteOffset":248896,
			"target":34962
		},
		{
			"buffer":0,
			"byteLength":360,
			"byteOffset":249176,
			"target":34963
		},
		{
			"buffer":0,
			"byteLength":420,
			"byteOffset":249536,
			"target":34962
		},
		{
			"buffer":0,
			"byteLength":420,
			"byteOffset":249956,
			"target":34962
		},
		{
			"buffer":0,
			"byteLength":280,
			"byteOffset":250376,
			"target":34962
		},
		{
			"buffer":0,
			"byteLength":360,
			"byteOffset":250656,
			"target":34963
		},
		{
			"buffer":0,
			"byteLength":2700,
			"byteOffset":251016,
			"target":34962
		},
		{
			"buffer":0,
			"byteLength":2700,
			"byteOffset":253716,
			"target":34962
		},
		{
			"buffer":0,
			"byteLength":1800,
			"byteOffset":256416,
			"target":34962
		},
		{
			"buffer":0,
			"byteLength":996,
			"byteOffset":258216,
			"target":34963
		},
		{
			"buffer":0,
			"byteLength":2700,
			"byteOffset":259212,
			"target":34962
		},
		{
			"buffer":0,
			"byteLength":2700,
			"byteOffset":261912,
			"target":34962
		},
		{
			"buffer":0,
			"byteLength":1800,
			"byteOffset":264612,
			"target":34962
		},
		{
			"buffer":0,
			"byteLength":20784,
			"byteOffset":266412,
			"target":34962
		},
		{
			"buffer":0,
			"byteLength":20784,
			"byteOffset":287196,
			"target":34962
		},
		{
			"buffer":0,
			"byteLength":13856,
			"byteOffset":307980,
			"target":34962
		},
		{
			"buffer":0,
			"byteLength":8292,
			"byteOffset":321836,
			"target":34963
		},
		{
			"buffer":0,
			"byteLength":2700,
			"byteOffset":330128,
			"target":34962
		},
		{
			"buffer":0,
			"byteLength":2700,
			"byteOffset":332828,
			"target":34962
		},
		{
			"buffer":0,
			"byteLength":1800,
			"byteOffset":335528,
			"target":34962
		},
		{
			"buffer":0,
			"byteLength":2052,
			"byteOffset":337328,
			"target":34962
		},
		{
			"buffer":0,
			"byteLength":2052,
			"byteOffset":339380,
			"target":34962
		},
		{
			"buffer":0,
			"byteLength":1368,
			"byteOffset":341432,
			"target":34962
		},
		{
			"buffer":0,
			"byteLength":1752,
			"byteOffset":342800,
			"target":34963
		},
		{
			"buffer":0,
			"byteLength":13068,
			"byteOffset":344552,
			"target":34962
		},
		{
			"buffer":0,
			"byteLength":13068,
			"byteOffset":357620,
			"target":34962
		},
		{
			"buffer":0,
			"byteLength":8712,
			"byteOffset":370688,
			"target":34962
		},
		{
			"buffer":0,
			"byteLength":3792,
			"byteOffset":379400,
			"target":34963
		},
		{
			"buffer":0,
			"byteLength":288,
			"byteOffset":383192,
			"target":34962
		},
		{
			"buffer":0,
			"byteLength":288,
			"byteOffset":383480,
			"target":34962
		},
		{
			"buffer":0,
			"byteLength":192,
			"byteOffset":383768,
			"target":34962
		},
		{
			"buffer":0,
			"byteLength":72,
			"byteOffset":383960,
			"target":34963
		},
		{
			"buffer":0,
			"byteLength":1776,
			"byteOffset":384032,
			"target":34962
		},
		{
			"buffer":0,
			"byteLength":1776,
			"byteOffset":385808,
			"target":34962
		},
		{
			"buffer":0,
			"byteLength":1184,
			"byteOffset":387584,
			"target":34962
		},
		{
			"buffer":0,
			"byteLength":408,
			"byteOffset":388768,
			"target":34963
		}
	],
	"samplers":[
		{
			"magFilter":9729,
			"minFilter":9987
		}
	],
	"buffers":[
		{
			"byteLength":389176,
			"uri":"map.bin"
		}
	]
}
