{
	"asset":{
		"generator":"Khronos glTF Blender I/O v4.0.44",
		"version":"2.0"
	},
	"extensionsUsed":[
		"KHR_lights_punctual"
	],
	"extensionsRequired":[
		"KHR_lights_punctual"
	],
	"extensions":{
		"KHR_lights_punctual":{
			"lights":[
				{
					"color":[
						0.6859690546989441,
						0.638825535774231,
						0.4634217619895935
					],
					"intensity":683,
					"type":"directional",
					"name":"Sun"
				},
				{
					"color":[
						1,
						0.2254607230424881,
						0.002517733024433255
					],
					"intensity":108702.82613176452,
					"type":"point",
					"name":"Point"
				}
			]
		}
	},
	"scene":0,
	"scenes":[
		{
			"name":"Scene",
			"nodes":[
				0,
				1,
				2,
				3,
				4,
				5,
				6,
				7,
				8,
				9,
				10,
				11,
				12,
				13,
				14,
				15,
				16,
				17,
				18,
				19
			]
		}
	],
	"nodes":[
		{
			"mesh":0,
			"name":"Material8",
			"rotation":[
				0.7071068286895752,
				0,
				0,
				0.7071068286895752
			],
			"scale":[
				0.1875,
				0.1875,
				0.1875
			],
			"translation":[
				-0.8166954517364502,
				4.157647132873535,
				1.41424560546875
			]
		},
		{
			"mesh":1,
			"name":"Material4",
			"rotation":[
				0.7071068286895752,
				0,
				0,
				0.7071068286895752
			],
			"scale":[
				0.75,
				0.75,
				0.75
			],
			"translation":[
				-15.066695213317871,
				4.157647132873535,
				-13.58575439453125
			]
		},
		{
			"mesh":2,
			"name":"Material2",
			"rotation":[
				0.7071068286895752,
				0,
				0,
				0.7071068286895752
			],
			"scale":[
				0.1875,
				0.1875,
				0.1875
			],
			"translation":[
				-0.8166954517364502,
				4.157647132873535,
				1.41424560546875
			]
		},
		{
			"mesh":3,
			"name":"Material0",
			"rotation":[
				0.7071068286895752,
				0,
				0,
				0.7071068286895752
			],
			"scale":[
				0.75,
				0.75,
				0.75
			],
			"translation":[
				-15.066695213317871,
				4.157647132873535,
				-13.58575439453125
			]
		},
		{
			"extensions":{
				"KHR_lights_punctual":{
					"light":0
				}
			},
			"name":"Sun",
			"rotation":[
				-0.6740285754203796,
				0.17219772934913635,
				-0.17219772934913635,
				0.6974104642868042
			],
			"scale":[
				0.7500000596046448,
				0.7499999403953552,
				0.7499999403953552
			],
			"translation":[
				-4.49789571762085,
				37.13301086425781,
				-30.893978118896484
			]
		},
		{
			"mesh":4,
			"name":"Cone",
			"rotation":[
				-1,
				0,
				0,
				1.6292068494294654e-07
			],
			"scale":[
				0.75,
				0.75,
				0.75
			],
			"translation":[
				-3.6032681465148926,
				9.650676727294922,
				25.771434783935547
			]
		},
		{
			"mesh":5,
			"name":"Cone.001",
			"scale":[
				0.75,
				0.75,
				0.75
			],
			"translation":[
				-3.588017463684082,
				10.747340202331543,
				25.771434783935547
			]
		},
		{
			"extensions":{
				"KHR_lights_punctual":{
					"light":1
				}
			},
			"name":"Point",
			"rotation":[
				-0.7071068286895752,
				0,
				0,
				0.7071068286895752
			],
			"scale":[
				0.75,
				0.7499999403953552,
				0.7499999403953552
			],
			"translation":[
				-2.8522753715515137,
				11.307892799377441,
				25.774948120117188
			]
		},
		{
			"mesh":6,
			"name":"Material5.160",
			"rotation":[
				0.7071068286895752,
				0,
				0,
				0.7071068286895752
			],
			"scale":[
				0.75,
				0.75,
				0.75
			],
			"translation":[
				-15.066695213317871,
				4.157647132873535,
				-13.58575439453125
			]
		},
		{
			"extras":{
				"pickup":"shield"
			},
			"mesh":7,
			"name":"Shield.003",
			"scale":[
				0.75,
				0.75,
				0.75
			],
			"translation":[
				-0.8588154315948486,
				53.14663314819336,
				14.796239852905273
			]
		},
		{
			"extras":{
				"pickup":"shield"
			},
			"mesh":7,
			"name":"Shield.001",
			"scale":[
				0.75,
				0.75,
				0.75
			],
			"translation":[
				33.64118576049805,
				40.39663314819336,
				22.296239852905273
			]
		},
		{
			"extras":{
				"pickup":"shield"
			},
			"mesh":7,
			"name":"Shield.002",
			"scale":[
				0.75,
				0.75,
				0.75
			],
			"translation":[
				-10.60881519317627,
				16.39663314819336,
				22.296239852905273
			]
		},
		{
			"extras":{
				"spawn_point_team":1
			},
			"mesh":8,
			"name":"SpawnPoint.001",
			"translation":[
				-38.16276931762695,
				4.5348358154296875,
				-15.640998840332031
			]
		},
		{
			"extras":{
				"spawn_point_team":1
			},
			"mesh":8,
			"name":"SpawnPoint.002",
			"translation":[
				41.83723068237305,
				4.5348358154296875,
				75.35900115966797
			]
		},
		{
			"extras":{
				"spawn_point_team":1
			},
			"mesh":8,
			"name":"SpawnPoint.003",
			"translation":[
				-24.162769317626953,
				4.5348358154296875,
				66.35900115966797
			]
		},
		{
			"extras":{
				"spawn_point_team":1
			},
			"mesh":8,
			"name":"SpawnPoint.004",
			"translation":[
				41.83723068237305,
				4.5348358154296875,
				-20.64099884033203
			]
		},
		{
			"extras":{
				"spawn_point_team":1
			},
			"mesh":8,
			"name":"SpawnPoint.005",
			"translation":[
				11.837230682373047,
				4.5348358154296875,
				23.35900115966797
			]
		},
		{
			"extras":{
				"spawn_point_team":1
			},
			"mesh":8,
			"name":"SpawnPoint.006",
			"translation":[
				11.837230682373047,
				91.53483581542969,
				23.35900115966797
			]
		},
		{
			"extras":{
				"spawn_point_team":1
			},
			"mesh":8,
			"name":"SpawnPoint.007",
			"translation":[
				-11.162769317626953,
				40.53483581542969,
				23.35900115966797
			]
		},
		{
			"extras":{
				"spawn_point_team":1
			},
			"mesh":8,
			"name":"SpawnPoint.008",
			"translation":[
				34.83723068237305,
				16.534835815429688,
				23.35900115966797
			]
		}
	],
	"materials":[
		{
			"doubleSided":true,
			"name":"Material.005",
			"normalTexture":{
				"index":0
			},
			"pbrMetallicRoughness":{
				"baseColorTexture":{
					"index":1
				},
				"metallicFactor":0,
				"roughnessFactor":0.5
			}
		},
		{
			"doubleSided":true,
			"name":"Material.003",
			"normalTexture":{
				"index":2
			},
			"pbrMetallicRoughness":{
				"baseColorTexture":{
					"index":3
				},
				"metallicFactor":0,
				"roughnessFactor":0.5
			}
		},
		{
			"doubleSided":true,
			"name":"Checkboard4",
			"normalTexture":{
				"index":4
			},
			"pbrMetallicRoughness":{
				"baseColorTexture":{
					"index":5
				},
				"metallicFactor":0,
				"roughnessFactor":0.5
			}
		},
		{
			"doubleSided":true,
			"name":"Material.001",
			"normalTexture":{
				"index":6
			},
			"pbrMetallicRoughness":{
				"baseColorTexture":{
					"index":7
				},
				"metallicFactor":0,
				"roughnessFactor":0.5
			}
		},
		{
			"doubleSided":true,
			"name":"Material",
			"pbrMetallicRoughness":{
				"baseColorFactor":[
					0.800000011920929,
					0.800000011920929,
					0.800000011920929,
					1
				],
				"metallicFactor":0,
				"roughnessFactor":0.5
			}
		},
		{
			"doubleSided":true,
			"emissiveFactor":[
				1,
				0.4425089955329895,
				0.006328257266432047
			],
			"name":"Flame",
			"pbrMetallicRoughness":{
				"baseColorFactor":[
					0.8000000715255737,
					0.33791691064834595,
					0.01099725067615509,
					1
				],
				"metallicFactor":0,
				"roughnessFactor":0.5
			}
		},
		{
			"doubleSided":true,
			"name":"Material.002",
			"pbrMetallicRoughness":{
				"baseColorFactor":[
					0.800000011920929,
					0.800000011920929,
					0.800000011920929,
					1
				],
				"metallicFactor":0,
				"roughnessFactor":0.4000000059604645
			}
		}
	],
	"meshes":[
		{
			"name":"Material8",
			"primitives":[
				{
					"attributes":{
						"POSITION":0,
						"NORMAL":1,
						"TEXCOORD_0":2,
						"TEXCOORD_1":3,
						"TANGENT":4
					},
					"indices":5,
					"material":0
				}
			]
		},
		{
			"name":"Material4",
			"primitives":[
				{
					"attributes":{
						"POSITION":6,
						"NORMAL":7,
						"TEXCOORD_0":8,
						"TANGENT":9
					},
					"indices":10,
					"material":1
				}
			]
		},
		{
			"name":"Material2",
			"primitives":[
				{
					"attributes":{
						"POSITION":11,
						"NORMAL":12,
						"TEXCOORD_0":13,
						"TEXCOORD_1":14,
						"TANGENT":15
					},
					"indices":16,
					"material":2
				}
			]
		},
		{
			"name":"Material0",
			"primitives":[
				{
					"attributes":{
						"POSITION":17,
						"NORMAL":18,
						"TEXCOORD_0":19,
						"TEXCOORD_1":20,
						"TANGENT":21
					},
					"indices":22,
					"material":3
				}
			]
		},
		{
			"name":"Cone",
			"primitives":[
				{
					"attributes":{
						"POSITION":23,
						"NORMAL":24,
						"TEXCOORD_0":25,
						"TANGENT":26
					},
					"indices":27,
					"material":4
				}
			]
		},
		{
			"name":"Cone.001",
			"primitives":[
				{
					"attributes":{
						"POSITION":28,
						"NORMAL":29,
						"TEXCOORD_0":30,
						"TANGENT":31
					},
					"indices":27,
					"material":5
				}
			]
		},
		{
			"name":"Material5.496",
			"primitives":[
				{
					"attributes":{
						"POSITION":32,
						"NORMAL":33,
						"TEXCOORD_0":34,
						"TEXCOORD_1":35,
						"TANGENT":36
					},
					"indices":37,
					"material":3
				},
				{
					"attributes":{
						"POSITION":38,
						"NORMAL":39,
						"TEXCOORD_0":40,
						"TEXCOORD_1":41,
						"TANGENT":42
					},
					"indices":43,
					"material":1
				}
			]
		},
		{
			"name":"Shield.003",
			"primitives":[
				{
					"attributes":{
						"POSITION":44,
						"NORMAL":45,
						"TEXCOORD_0":46,
						"TANGENT":47
					},
					"indices":48,
					"material":6
				}
			]
		},
		{
			"name":"Cube",
			"primitives":[
				{
					"attributes":{
						"POSITION":49,
						"NORMAL":50,
						"TEXCOORD_0":51,
						"TANGENT":52
					},
					"indices":53
				}
			]
		}
	],
	"textures":[
		{
			"sampler":0,
			"source":0
		},
		{
			"sampler":0,
			"source":1
		},
		{
			"sampler":0,
			"source":2
		},
		{
			"sampler":0,
			"source":3
		},
		{
			"sampler":0,
			"source":4
		},
		{
			"sampler":0,
			"source":5
		},
		{
			"sampler":0,
			"source":6
		},
		{
			"sampler":0,
			"source":7
		}
	],
	"images":[
		{
			"mimeType":"image/jpeg",
			"name":"Concrete_02_n",
			"uri":"Concrete_02_n.jpg"
		},
		{
			"mimeType":"image/jpeg",
			"name":"Concrete_02",
			"uri":"Concrete_02.jpg"
		},
		{
			"mimeType":"image/jpeg",
			"name":"Wood_Tiles_n",
			"uri":"Wood_Tiles_n.jpg"
		},
		{
			"mimeType":"image/jpeg",
			"name":"Wood_Tiles",
			"uri":"Wood_Tiles.jpg"
		},
		{
			"mimeType":"image/jpeg",
			"name":"Granite_Pavement_01_n",
			"uri":"Granite_Pavement_01_n.jpg"
		},
		{
			"mimeType":"image/jpeg",
			"name":"Granite_Pavement_01",
			"uri":"Granite_Pavement_01.jpg"
		},
		{
			"mimeType":"image/jpeg",
			"name":"Marble_Tiles_n",
			"uri":"Marble_Tiles_n.jpg"
		},
		{
			"mimeType":"image/jpeg",
			"name":"Marble_Tiles",
			"uri":"Marble_Tiles.jpg"
		}
	],
	"accessors":[
		{
			"bufferView":0,
			"componentType":5126,
			"count":8416,
			"max":[
				384,
				448,
				0
			],
			"min":[
				-256,
				-192,
				-126.57073974609375
			],
			"type":"VEC3"
		},
		{
			"bufferView":1,
			"componentType":5126,
			"count":8416,
			"type":"VEC3"
		},
		{
			"bufferView":2,
			"componentType":5126,
			"count":8416,
			"type":"VEC2"
		},
		{
			"bufferView":3,
			"componentType":5126,
			"count":8416,
			"type":"VEC2"
		},
		{
			"bufferView":4,
			"componentType":5126,
			"count":8416,
			"type":"VEC4"
		},
		{
			"bufferView":5,
			"componentType":5123,
			"count":10896,
			"type":"SCALAR"
		},
		{
			"bufferView":6,
			"componentType":5126,
			"count":3025,
			"max":[
				57,
				69,
				0
			],
			"min":[
				15,
				27,
				-65
			],
			"type":"VEC3"
		},
		{
			"bufferView":7,
			"componentType":5126,
			"count":3025,
			"type":"VEC3"
		},
		{
			"bufferView":8,
			"componentType":5126,
			"count":3025,
			"type":"VEC2"
		},
		{
			"bufferView":9,
			"componentType":5126,
			"count":3025,
			"type":"VEC4"
		},
		{
			"bufferView":10,
			"componentType":5123,
			"count":4503,
			"type":"SCALAR"
		},
		{
			"bufferView":11,
			"componentType":5126,
			"count":22,
			"max":[
				384,
				448,
				0
			],
			"min":[
				-256,
				-192,
				-16
			],
			"type":"VEC3"
		},
		{
			"bufferView":12,
			"componentType":5126,
			"count":22,
			"type":"VEC3"
		},
		{
			"bufferView":13,
			"componentType":5126,
			"count":22,
			"type":"VEC2"
		},
		{
			"bufferView":14,
			"componentType":5126,
			"count":22,
			"type":"VEC2"
		},
		{
			"bufferView":15,
			"componentType":5126,
			"count":22,
			"type":"VEC4"
		},
		{
			"bufferView":16,
			"componentType":5123,
			"count":36,
			"type":"SCALAR"
		},
		{
			"bufferView":17,
			"componentType":5126,
			"count":5390,
			"max":[
				60,
				72,
				0
			],
			"min":[
				12,
				24,
				-70
			],
			"type":"VEC3"
		},
		{
			"bufferView":18,
			"componentType":5126,
			"count":5390,
			"type":"VEC3"
		},
		{
			"bufferView":19,
			"componentType":5126,
			"count":5390,
			"type":"VEC2"
		},
		{
			"bufferView":20,
			"componentType":5126,
			"count":5390,
			"type":"VEC2"
		},
		{
			"bufferView":21,
			"componentType":5126,
			"count":5390,
			"type":"VEC4"
		},
		{
			"bufferView":22,
			"componentType":5123,
			"count":8874,
			"type":"SCALAR"
		},
		{
			"bufferView":23,
			"componentType":5126,
			"count":16,
			"max":[
				0.26549655199050903,
				1.0590556859970093,
				0.26549655199050903
			],
			"min":[
				-0.26549655199050903,
				-1.0590556859970093,
				-0.26549655199050903
			],
			"type":"VEC3"
		},
		{
			"bufferView":24,
			"componentType":5126,
			"count":16,
			"type":"VEC3"
		},
		{
			"bufferView":25,
			"componentType":5126,
			"count":16,
			"type":"VEC2"
		},
		{
			"bufferView":26,
			"componentType":5126,
			"count":16,
			"type":"VEC4"
		},
		{
			"bufferView":27,
			"componentType":5123,
			"count":18,
			"type":"SCALAR"
		},
		{
			"bufferView":28,
			"componentType":5126,
			"count":16,
			"max":[
				0.26549655199050903,
				0.259166419506073,
				0.26549655199050903
			],
			"min":[
				-0.26549655199050903,
				-0.259166419506073,
				-0.26549655199050903
			],
			"type":"VEC3"
		},
		{
			"bufferView":29,
			"componentType":5126,
			"count":16,
			"type":"VEC3"
		},
		{
			"bufferView":30,
			"componentType":5126,
			"count":16,
			"type":"VEC2"
		},
		{
			"bufferView":31,
			"componentType":5126,
			"count":16,
			"type":"VEC4"
		},
		{
			"bufferView":32,
			"componentType":5126,
			"count":9922,
			"max":[
				115.5,
				132.75,
				1.0796199603646528e-05
			],
			"min":[
				-45.75,
				-30.75,
				-66
			],
			"type":"VEC3"
		},
		{
			"bufferView":33,
			"componentType":5126,
			"count":9922,
			"type":"VEC3"
		},
		{
			"bufferView":34,
			"componentType":5126,
			"count":9922,
			"type":"VEC2"
		},
		{
			"bufferView":35,
			"componentType":5126,
			"count":9922,
			"type":"VEC2"
		},
		{
			"bufferView":36,
			"componentType":5126,
			"count":9922,
			"type":"VEC4"
		},
		{
			"bufferView":37,
			"componentType":5123,
			"count":17280,
			"type":"SCALAR"
		},
		{
			"bufferView":38,
			"componentType":5126,
			"count":1289,
			"max":[
				69,
				81,
				-13
			],
			"min":[
				3,
				15,
				-63
			],
			"type":"VEC3"
		},
		{
			"bufferView":39,
			"componentType":5126,
			"count":1289,
			"type":"VEC3"
		},
		{
			"bufferView":40,
			"componentType":5126,
			"count":1289,
			"type":"VEC2"
		},
		{
			"bufferView":41,
			"componentType":5126,
			"count":1289,
			"type":"VEC2"
		},
		{
			"bufferView":42,
			"componentType":5126,
			"count":1289,
			"type":"VEC4"
		},
		{
			"bufferView":43,
			"componentType":5123,
			"count":2112,
			"type":"SCALAR"
		},
		{
			"bufferView":44,
			"componentType":5126,
			"count":164,
			"max":[
				0.0596998892724514,
				0.514474630355835,
				0.25
			],
			"min":[
				-0.0596998892724514,
				0,
				-0.25
			],
			"type":"VEC3"
		},
		{
			"bufferView":45,
			"componentType":5126,
			"count":164,
			"type":"VEC3"
		},
		{
			"bufferView":46,
			"componentType":5126,
			"count":164,
			"type":"VEC2"
		},
		{
			"bufferView":47,
			"componentType":5126,
			"count":164,
			"type":"VEC4"
		},
		{
			"bufferView":48,
			"componentType":5123,
			"count":204,
			"type":"SCALAR"
		},
		{
			"bufferView":49,
			"componentType":5126,
			"count":24,
			"max":[
				0.375,
				1.5,
				0.375
			],
			"min":[
				-0.375,
				0,
				-0.375
			],
			"type":"VEC3"
		},
		{
			"bufferView":50,
			"componentType":5126,
			"count":24,
			"type":"VEC3"
		},
		{
			"bufferView":51,
			"componentType":5126,
			"count":24,
			"type":"VEC2"
		},
		{
			"bufferView":52,
			"componentType":5126,
			"count":24,
			"type":"VEC4"
		},
		{
			"bufferView":53,
			"componentType":5123,
			"count":36,
			"type":"SCALAR"
		}
	],
	"bufferViews":[
		{
			"buffer":0,
			"byteLength":100992,
			"byteOffset":0,
			"target":34962
		},
		{
			"buffer":0,
			"byteLength":100992,
			"byteOffset":100992,
			"target":34962
		},
		{
			"buffer":0,
			"byteLength":67328,
			"byteOffset":201984,
			"target":34962
		},
		{
			"buffer":0,
			"byteLength":67328,
			"byteOffset":269312,
			"target":34962
		},
		{
			"buffer":0,
			"byteLength":134656,
			"byteOffset":336640,
			"target":34962
		},
		{
			"buffer":0,
			"byteLength":21792,
			"byteOffset":471296,
			"target":34963
		},
		{
			"buffer":0,
			"byteLength":36300,
			"byteOffset":493088,
			"target":34962
		},
		{
			"buffer":0,
			"byteLength":36300,
			"byteOffset":529388,
			"target":34962
		},
		{
			"buffer":0,
			"byteLength":24200,
			"byteOffset":565688,
			"target":34962
		},
		{
			"buffer":0,
			"byteLength":48400,
			"byteOffset":589888,
			"target":34962
		},
		{
			"buffer":0,
			"byteLength":9006,
			"byteOffset":638288,
			"target":34963
		},
		{
			"buffer":0,
			"byteLength":264,
			"byteOffset":647296,
			"target":34962
		},
		{
			"buffer":0,
			"byteLength":264,
			"byteOffset":647560,
			"target":34962
		},
		{
			"buffer":0,
			"byteLength":176,
			"byteOffset":647824,
			"target":34962
		},
		{
			"buffer":0,
			"byteLength":176,
			"byteOffset":648000,
			"target":34962
		},
		{
			"buffer":0,
			"byteLength":352,
			"byteOffset":648176,
			"target":34962
		},
		{
			"buffer":0,
			"byteLength":72,
			"byteOffset":648528,
			"target":34963
		},
		{
			"buffer":0,
			"byteLength":64680,
			"byteOffset":648600,
			"target":34962
		},
		{
			"buffer":0,
			"byteLength":64680,
			"byteOffset":713280,
			"target":34962
		},
		{
			"buffer":0,
			"byteLength":43120,
			"byteOffset":777960,
			"target":34962
		},
		{
			"buffer":0,
			"byteLength":43120,
			"byteOffset":821080,
			"target":34962
		},
		{
			"buffer":0,
			"byteLength":86240,
			"byteOffset":864200,
			"target":34962
		},
		{
			"buffer":0,
			"byteLength":17748,
			"byteOffset":950440,
			"target":34963
		},
		{
			"buffer":0,
			"byteLength":192,
			"byteOffset":968188,
			"target":34962
		},
		{
			"buffer":0,
			"byteLength":192,
			"byteOffset":968380,
			"target":34962
		},
		{
			"buffer":0,
			"byteLength":128,
			"byteOffset":968572,
			"target":34962
		},
		{
			"buffer":0,
			"byteLength":256,
			"byteOffset":968700,
			"target":34962
		},
		{
			"buffer":0,
			"byteLength":36,
			"byteOffset":968956,
			"target":34963
		},
		{
			"buffer":0,
			"byteLength":192,
			"byteOffset":968992,
			"target":34962
		},
		{
			"buffer":0,
			"byteLength":192,
			"byteOffset":969184,
			"target":34962
		},
		{
			"buffer":0,
			"byteLength":128,
			"byteOffset":969376,
			"target":34962
		},
		{
			"buffer":0,
			"byteLength":256,
			"byteOffset":969504,
			"target":34962
		},
		{
			"buffer":0,
			"byteLength":119064,
			"byteOffset":969760,
			"target":34962
		},
		{
			"buffer":0,
			"byteLength":119064,
			"byteOffset":1088824,
			"target":34962
		},
		{
			"buffer":0,
			"byteLength":79376,
			"byteOffset":1207888,
			"target":34962
		},
		{
			"buffer":0,
			"byteLength":79376,
			"byteOffset":1287264,
			"target":34962
		},
		{
			"buffer":0,
			"byteLength":158752,
			"byteOffset":1366640,
			"target":34962
		},
		{
			"buffer":0,
			"byteLength":34560,
			"byteOffset":1525392,
			"target":34963
		},
		{
			"buffer":0,
			"byteLength":15468,
			"byteOffset":1559952,
			"target":34962
		},
		{
			"buffer":0,
			"byteLength":15468,
			"byteOffset":1575420,
			"target":34962
		},
		{
			"buffer":0,
			"byteLength":10312,
			"byteOffset":1590888,
			"target":34962
		},
		{
			"buffer":0,
			"byteLength":10312,
			"byteOffset":1601200,
			"target":34962
		},
		{
			"buffer":0,
			"byteLength":20624,
			"byteOffset":1611512,
			"target":34962
		},
		{
			"buffer":0,
			"byteLength":4224,
			"byteOffset":1632136,
			"target":34963
		},
		{
			"buffer":0,
			"byteLength":1968,
			"byteOffset":1636360,
			"target":34962
		},
		{
			"buffer":0,
			"byteLength":1968,
			"byteOffset":1638328,
			"target":34962
		},
		{
			"buffer":0,
			"byteLength":1312,
			"byteOffset":1640296,
			"target":34962
		},
		{
			"buffer":0,
			"byteLength":2624,
			"byteOffset":1641608,
			"target":34962
		},
		{
			"buffer":0,
			"byteLength":408,
			"byteOffset":1644232,
			"target":34963
		},
		{
			"buffer":0,
			"byteLength":288,
			"byteOffset":1644640,
			"target":34962
		},
		{
			"buffer":0,
			"byteLength":288,
			"byteOffset":1644928,
			"target":34962
		},
		{
			"buffer":0,
			"byteLength":192,
			"byteOffset":1645216,
			"target":34962
		},
		{
			"buffer":0,
			"byteLength":384,
			"byteOffset":1645408,
			"target":34962
		},
		{
			"buffer":0,
			"byteLength":72,
			"byteOffset":1645792,
			"target":34963
		}
	],
	"samplers":[
		{
			"magFilter":9729,
			"minFilter":9987
		}
	],
	"buffers":[
		{
			"byteLength":1645864,
			"uri":"map.bin"
		}
	]
}
